# xmcd CD database file
#
# Track frame offsets:
#	150
#	15793
#	35520
#
# Disc length: 696 seconds
#
# Revision: 2
# Processed by: cddbd v1.4PL0 Copyright (c) Steve Scherf et al.
# Submitted via: CDex 1.50Beta5
#
DISCID=1302b603
DTITLE=Levellers - Single - One Way (1998)
DYEAR=1998
DGENRE=New Age
TTITLE0=One Way (new version 1998)
TTITLE1=England My Home
TTITLE2=I Have No Answers
EXTD=YEAR: 1998
EXTT0=
EXTT1=
EXTT2=
PLAYORDER=
